REM DIRINDEX 1\2\3,1\2\4,1\2\5,1\2\6
REM DIRNAME cjc157,folder01,folder02,folder03,folder04,folder05
TITLE ""
FILE "089 089.mp3" MP3
  TRACK 01 AUDIO
    TITLE "0:"
    INDEX 01 00:00:00
  TRACK 02 AUDIO
    TITLE "3:cjc157_3360"
    INDEX 01 00:00:09
  TRACK 03 AUDIO
    TITLE "0:"
    INDEX 01 00:01:21
  TRACK 04 AUDIO
    TITLE "4:cjc157_3361"
    INDEX 01 00:01:66
  TRACK 05 AUDIO
    TITLE "0:"
    INDEX 01 00:02:69
  TRACK 06 AUDIO
    TITLE "5:cjc157_3362"
    INDEX 01 00:03:41
  TRACK 07 AUDIO
    TITLE "0:"
    INDEX 01 00:06:04
  TRACK 08 AUDIO
    TITLE "5:cjc157_3363"
    INDEX 01 00:06:57
  TRACK 09 AUDIO
    TITLE "0:"
    INDEX 01 00:09:36
  TRACK 10 AUDIO
    TITLE "3:cjc157_3364"
    INDEX 01 00:10:06
  TRACK 11 AUDIO
    TITLE "0:"
    INDEX 01 00:11:31
  TRACK 12 AUDIO
    TITLE "4:cjc157_3365"
    INDEX 01 00:12:03
  TRACK 13 AUDIO
    TITLE "0:"
    INDEX 01 00:13:18
  TRACK 14 AUDIO
    TITLE "5:cjc157_3366"
    INDEX 01 00:13:63
  TRACK 15 AUDIO
    TITLE "0:"
    INDEX 01 00:16:24
  TRACK 16 AUDIO
    TITLE "3:cjc157_3367"
    INDEX 01 00:16:69
  TRACK 17 AUDIO
    TITLE "0:"
    INDEX 01 00:18:17
  TRACK 18 AUDIO
    TITLE "4:cjc157_3368"
    INDEX 01 00:18:66
  TRACK 19 AUDIO
    TITLE "0:"
    INDEX 01 00:20:30
  TRACK 20 AUDIO
    TITLE "5:cjc157_3369"
    INDEX 01 00:20:73
  TRACK 21 AUDIO
    TITLE "0:"
    INDEX 01 00:24:10
  TRACK 22 AUDIO
    TITLE "3:cjc157_3370"
    INDEX 01 00:24:53
  TRACK 23 AUDIO
    TITLE "0:"
    INDEX 01 00:25:72
  TRACK 24 AUDIO
    TITLE "4:cjc157_3371"
    INDEX 01 00:26:44
  TRACK 25 AUDIO
    TITLE "0:"
    INDEX 01 00:27:73
  TRACK 26 AUDIO
    TITLE "5:cjc157_3372"
    INDEX 01 00:28:47
  TRACK 27 AUDIO
    TITLE "0:"
    INDEX 01 00:32:01
  TRACK 28 AUDIO
    TITLE "5:cjc157_3373"
    INDEX 01 00:32:45
  TRACK 29 AUDIO
    TITLE "0:"
    INDEX 01 00:35:00
  TRACK 30 AUDIO
    TITLE "3:cjc157_3374"
    INDEX 01 00:35:43
  TRACK 31 AUDIO
    TITLE "0:"
    INDEX 01 00:36:56
  TRACK 32 AUDIO
    TITLE "4:cjc157_3375"
    INDEX 01 00:37:24
  TRACK 33 AUDIO
    TITLE "0:"
    INDEX 01 00:38:59
  TRACK 34 AUDIO
    TITLE "5:cjc157_3376"
    INDEX 01 00:39:29
  TRACK 35 AUDIO
    TITLE "0:"
    INDEX 01 00:42:10
  TRACK 36 AUDIO
    TITLE "5:cjc157_3377"
    INDEX 01 00:42:59
  TRACK 37 AUDIO
    TITLE "0:"
    INDEX 01 00:44:01
  TRACK 38 AUDIO
    TITLE "5:cjc157_3378"
    INDEX 01 00:44:46
  TRACK 39 AUDIO
    TITLE "0:"
    INDEX 01 00:46:00
  TRACK 40 AUDIO
    TITLE "3:cjc157_3379"
    INDEX 01 00:46:43
  TRACK 41 AUDIO
    TITLE "0:"
    INDEX 01 00:47:70
  TRACK 42 AUDIO
    TITLE "4:cjc157_3380"
    INDEX 01 00:48:40
  TRACK 43 AUDIO
    TITLE "0:"
    INDEX 01 00:49:61
  TRACK 44 AUDIO
    TITLE "5:cjc157_3381"
    INDEX 01 00:50:31
  TRACK 45 AUDIO
    TITLE "0:"
    INDEX 01 00:53:74
  TRACK 46 AUDIO
    TITLE "5:cjc157_3382"
    INDEX 01 00:54:44
  TRACK 47 AUDIO
    TITLE "0:"
    INDEX 01 00:56:06
  TRACK 48 AUDIO
    TITLE "3:cjc157_3383"
    INDEX 01 00:56:53
  TRACK 49 AUDIO
    TITLE "0:"
    INDEX 01 00:57:56
  TRACK 50 AUDIO
    TITLE "4:cjc157_3384"
    INDEX 01 00:58:26
  TRACK 51 AUDIO
    TITLE "0:"
    INDEX 01 00:59:36
  TRACK 52 AUDIO
    TITLE "5:cjc157_3385"
    INDEX 01 01:00:02
  TRACK 53 AUDIO
    TITLE "0:"
    INDEX 01 01:01:62
  TRACK 54 AUDIO
    TITLE "5:cjc157_3386"
    INDEX 01 01:02:34
  TRACK 55 AUDIO
    TITLE "0:"
    INDEX 01 01:05:11
  TRACK 56 AUDIO
    TITLE "3:cjc157_3387"
    INDEX 01 01:05:56
  TRACK 57 AUDIO
    TITLE "0:"
    INDEX 01 01:06:73
  TRACK 58 AUDIO
    TITLE "4:cjc157_3388"
    INDEX 01 01:07:47
  TRACK 59 AUDIO
    TITLE "0:"
    INDEX 01 01:09:09
  TRACK 60 AUDIO
    TITLE "5:cjc157_3389"
    INDEX 01 01:09:56
  TRACK 61 AUDIO
    TITLE "0:"
    INDEX 01 01:12:44
  TRACK 62 AUDIO
    TITLE "3:cjc157_3390"
    INDEX 01 01:13:16
  TRACK 63 AUDIO
    TITLE "0:"
    INDEX 01 01:14:35
  TRACK 64 AUDIO
    TITLE "4:cjc157_3391"
    INDEX 01 01:15:01
  TRACK 65 AUDIO
    TITLE "0:"
    INDEX 01 01:16:22
  TRACK 66 AUDIO
    TITLE "5:cjc157_3392"
    INDEX 01 01:16:63
  TRACK 67 AUDIO
    TITLE "0:"
    INDEX 01 01:19:17
  TRACK 68 AUDIO
    TITLE "5:cjc157_3393"
    INDEX 01 01:19:60
  TRACK 69 AUDIO
    TITLE "0:"
    INDEX 01 01:22:35
  TRACK 70 AUDIO
    TITLE "3:cjc157_3394"
    INDEX 01 01:23:03
  TRACK 71 AUDIO
    TITLE "0:"
    INDEX 01 01:24:20
  TRACK 72 AUDIO
    TITLE "4:cjc157_3395"
    INDEX 01 01:24:65
  TRACK 73 AUDIO
    TITLE "0:"
    INDEX 01 01:26:09
  TRACK 74 AUDIO
    TITLE "5:cjc157_3396"
    INDEX 01 01:26:52
  TRACK 75 AUDIO
    TITLE "0:"
    INDEX 01 01:28:49
  TRACK 76 AUDIO
    TITLE "5:cjc157_3397"
    INDEX 01 01:29:21
  TRACK 77 AUDIO
    TITLE "0:"
    INDEX 01 01:30:71
